<svg width="159" height="103" viewBox="0 0 159 103" fill="none" xmlns="http://www.w3.org/2000/svg">
<path d="M46.3438 69.5234L48.043 65.3047H62.457L64.1562 69.5234H46.3438ZM43.0625 77.9609L44.7031 73.7422H65.7383L67.5547 77.9609H43.0625ZM39.7812 86.3984L41.4219 82.1797H69.0781L70.8359 86.3984H39.7812ZM5.50391 98H0.933594L39.3125 0.96875H43.8828L82.2031 98H77.6914L41.5977 6.65234L5.50391 98ZM42.125 16.6719L44.5273 22.0625L14.5273 98H10.0156L42.125 16.6719ZM46.8125 27.8047L49.0391 33.6055L23.668 98H19.0977L46.8125 27.8047ZM51.2656 39.4062L53.4922 45.3242L32.6914 98H28.1797L51.2656 39.4062ZM109.449 98H104.879L66.5586 0.96875H71.0703L109.449 98ZM61.9883 0.96875L100.367 98H95.8555L57.4766 0.96875H61.9883ZM52.9062 0.96875L91.2852 98H86.7148L48.3945 0.96875H52.9062ZM121.344 76.9062H114.137V72.6875H121.344C123.414 72.6875 125.152 71.9062 126.559 70.3438C127.965 68.7812 128.668 66.7109 128.668 64.1328V0.96875H132.887V64.1328C132.887 67.8438 131.773 70.9102 129.547 73.332C127.32 75.7148 124.586 76.9062 121.344 76.9062ZM121.344 85.3438H114.137V81.125H121.344C125.719 81.125 129.43 79.4648 132.477 76.1445C135.562 72.8242 137.105 68.8203 137.105 64.1328V0.96875H141.324V64.1328C141.324 69.9922 139.371 74.9922 135.465 79.1328C131.598 83.2734 126.891 85.3438 121.344 85.3438ZM121.344 93.7812H114.137V89.5625H121.344C128.062 89.5625 133.766 87.082 138.453 82.1211C143.18 77.1602 145.543 71.1641 145.543 64.1328V0.96875H149.762V64.1328C149.762 69.4844 148.492 74.4453 145.953 79.0156C143.453 83.5469 140.016 87.1406 135.641 89.7969C131.266 92.4531 126.5 93.7812 121.344 93.7812ZM121.344 102.219H114.137V98H121.344C125.797 98 130.035 97.1016 134.059 95.3047C138.082 93.5078 141.539 91.1055 144.43 88.0977C147.359 85.0508 149.684 81.4375 151.402 77.2578C153.121 73.0781 153.98 68.7031 153.98 64.1328V0.96875H158.199V64.1328C158.199 69.2891 157.223 74.2109 155.27 78.8984C153.355 83.5859 150.738 87.6484 147.418 91.0859C144.137 94.4844 140.211 97.1797 135.641 99.1719C131.109 101.203 126.344 102.219 121.344 102.219Z" fill="black"/>
</svg>
